HIERARCHY
ROOT Hips
{
	OFFSET 0.000000 100.481300 0.000000
	CHANNELS 6 Xposition Yposition Zposition Xrotation Yrotation Zrotation
	JOINT Spine
	{
		OFFSET -0.279200 12.230698 -2.892100
		CHANNELS 3 Xrotation Yrotation Zrotation
		JOINT Spine1
		{
			OFFSET -0.325700 14.269203 -3.374200
			CHANNELS 3 Xrotation Yrotation Zrotation
			JOINT Spine2
			{
				OFFSET -0.372300 16.307602 -0.352600
				CHANNELS 3 Xrotation Yrotation Zrotation
				JOINT Neck
				{
					OFFSET -0.418800 17.814194 8.416900
					CHANNELS 3 Xrotation Yrotation Zrotation
					JOINT Head
					{
						OFFSET 0.000000 7.031097 3.806800
						CHANNELS 3 Xrotation Yrotation Zrotation
						JOINT HeadTop_End
						{
							OFFSET 0.000000 24.646606 12.978600
							CHANNELS 3 Xrotation Yrotation Zrotation
							End Site
							{
								OFFSET 0.000000 27.854965 0.000000
							}
						}
					}
				}
				JOINT LeftShoulder
				{
					OFFSET 16.952999 14.495407 -7.737500
					CHANNELS 3 Xrotation Yrotation Zrotation
					JOINT LeftArm
					{
						OFFSET 9.308998 -2.777710 0.208600
						CHANNELS 3 Xrotation Yrotation Zrotation
						JOINT LeftForeArm
						{
							OFFSET 29.972298 0.000000 0.000000
							CHANNELS 3 Xrotation Yrotation Zrotation
							JOINT LeftHand
							{
								OFFSET 26.026505 0.000000 0.000000
								CHANNELS 3 Xrotation Yrotation Zrotation
								JOINT LeftHandThumb1
								{
									OFFSET 12.240501 -7.147949 9.207150
									CHANNELS 3 Xrotation Yrotation Zrotation
									JOINT LeftHandThumb2
									{
										OFFSET 4.138618 -2.389435 2.389433
										CHANNELS 3 Xrotation Yrotation Zrotation
										JOINT LeftHandThumb3
										{
											OFFSET 2.726913 -1.574387 1.574386
											CHANNELS 3 Xrotation Yrotation Zrotation
											JOINT LeftHandThumb4
											{
												OFFSET 3.941010 -2.275345 2.275342
												CHANNELS 3 Xrotation Yrotation Zrotation
												End Site
												{
													OFFSET -0.005798 5.087799 0.009903
												}
											}
										}
									}
								}
								JOINT LeftHandIndex1
								{
									OFFSET 24.424698 -1.985611 5.953459
									CHANNELS 3 Xrotation Yrotation Zrotation
									JOINT LeftHandIndex2
									{
										OFFSET 6.426697 0.000000 0.000000
										CHANNELS 3 Xrotation Yrotation Zrotation
										JOINT LeftHandIndex3
										{
											OFFSET 5.337898 0.000000 0.000000
											CHANNELS 3 Xrotation Yrotation Zrotation
											JOINT LeftHandIndex4
											{
												OFFSET 4.409401 0.000000 0.000000
												CHANNELS 3 Xrotation Yrotation Zrotation
												End Site
												{
													OFFSET 0.000000 4.409363 0.014373
												}
											}
										}
									}
								}
								JOINT LeftHandMiddle1
								{
									OFFSET 23.810104 0.000000 0.000000
									CHANNELS 3 Xrotation Yrotation Zrotation
									JOINT LeftHandMiddle2
									{
										OFFSET 7.176498 0.000000 0.000000
										CHANNELS 3 Xrotation Yrotation Zrotation
										JOINT LeftHandMiddle3
										{
											OFFSET 6.774902 0.000000 0.000000
											CHANNELS 3 Xrotation Yrotation Zrotation
											JOINT LeftHandMiddle4
											{
												OFFSET 5.403328 0.000000 0.000000
												CHANNELS 3 Xrotation Yrotation Zrotation
												End Site
												{
													OFFSET -0.027702 5.403244 0.017414
												}
											}
										}
									}
								}
								JOINT LeftHandRing1
								{
									OFFSET 22.908401 -0.839279 -6.020567
									CHANNELS 3 Xrotation Yrotation Zrotation
									JOINT LeftHandRing2
									{
										OFFSET 6.337502 0.000000 0.000000
										CHANNELS 3 Xrotation Yrotation Zrotation
										JOINT LeftHandRing3
										{
											OFFSET 5.779297 0.000000 0.000000
											CHANNELS 3 Xrotation Yrotation Zrotation
											JOINT LeftHandRing4
											{
												OFFSET 4.965698 0.000000 0.000000
												CHANNELS 3 Xrotation Yrotation Zrotation
												End Site
												{
													OFFSET 0.000000 4.965668 0.016186
												}
											}
										}
									}
								}
								JOINT LeftHandPinky1
								{
									OFFSET 20.037003 -1.530319 -10.950146
									CHANNELS 3 Xrotation Yrotation Zrotation
									JOINT LeftHandPinky2
									{
										OFFSET 5.254700 0.000000 0.000000
										CHANNELS 3 Xrotation Yrotation Zrotation
										JOINT LeftHandPinky3
										{
											OFFSET 4.810204 0.000000 0.000000
											CHANNELS 3 Xrotation Yrotation Zrotation
											JOINT LeftHandPinky4
											{
												OFFSET 3.647202 0.000000 0.000000
												CHANNELS 3 Xrotation Yrotation Zrotation
												End Site
												{
													OFFSET 0.000000 3.647186 0.011889
												}
											}
										}
									}
								}
							}
						}
					}
				}
				JOINT RightShoulder
				{
					OFFSET -15.141001 14.495407 -7.737500
					CHANNELS 3 Xrotation Yrotation Zrotation
					JOINT RightArm
					{
						OFFSET -9.308998 -2.777710 0.208500
						CHANNELS 3 Xrotation Yrotation Zrotation
						JOINT RightForeArm
						{
							OFFSET -29.972300 0.000000 0.000000
							CHANNELS 3 Xrotation Yrotation Zrotation
							JOINT RightHand
							{
								OFFSET -26.026505 0.000000 0.000000
								CHANNELS 3 Xrotation Yrotation Zrotation
								JOINT RightHandThumb1
								{
									OFFSET -12.240601 -7.148026 9.207092
									CHANNELS 3 Xrotation Yrotation Zrotation
									JOINT RightHandThumb2
									{
										OFFSET -4.138618 -2.389435 2.389433
										CHANNELS 3 Xrotation Yrotation Zrotation
										JOINT RightHandThumb3
										{
											OFFSET -2.726974 -1.574417 1.574421
											CHANNELS 3 Xrotation Yrotation Zrotation
											JOINT RightHandThumb4
											{
												OFFSET -3.941010 -2.275345 2.275343
												CHANNELS 3 Xrotation Yrotation Zrotation
												End Site
												{
													OFFSET 0.005814 5.087799 0.009927
												}
											}
										}
									}
								}
								JOINT RightHandIndex1
								{
									OFFSET -24.424698 -1.985657 5.953444
									CHANNELS 3 Xrotation Yrotation Zrotation
									JOINT RightHandIndex2
									{
										OFFSET -6.426697 0.000000 0.000000
										CHANNELS 3 Xrotation Yrotation Zrotation
										JOINT RightHandIndex3
										{
											OFFSET -5.337898 0.000000 0.000000
											CHANNELS 3 Xrotation Yrotation Zrotation
											JOINT RightHandIndex4
											{
												OFFSET -4.409401 0.000000 0.000000
												CHANNELS 3 Xrotation Yrotation Zrotation
												End Site
												{
													OFFSET 0.000000 4.409363 0.014408
												}
											}
										}
									}
								}
								JOINT RightHandMiddle1
								{
									OFFSET -23.810097 0.000000 0.000000
									CHANNELS 3 Xrotation Yrotation Zrotation
									JOINT RightHandMiddle2
									{
										OFFSET -7.176498 0.000000 0.000000
										CHANNELS 3 Xrotation Yrotation Zrotation
										JOINT RightHandMiddle3
										{
											OFFSET -6.774902 0.000000 0.000000
											CHANNELS 3 Xrotation Yrotation Zrotation
											JOINT RightHandMiddle4
											{
												OFFSET -5.403328 0.000000 0.000000
												CHANNELS 3 Xrotation Yrotation Zrotation
												End Site
												{
													OFFSET 0.027702 5.403244 0.017457
												}
											}
										}
									}
								}
								JOINT RightHandRing1
								{
									OFFSET -22.908302 -0.839325 -6.020576
									CHANNELS 3 Xrotation Yrotation Zrotation
									JOINT RightHandRing2
									{
										OFFSET -6.337502 0.000000 0.000000
										CHANNELS 3 Xrotation Yrotation Zrotation
										JOINT RightHandRing3
										{
											OFFSET -5.779297 0.000000 0.000000
											CHANNELS 3 Xrotation Yrotation Zrotation
											JOINT RightHandRing4
											{
												OFFSET -4.965698 0.000000 0.000000
												CHANNELS 3 Xrotation Yrotation Zrotation
												End Site
												{
													OFFSET 0.000000 4.965668 0.016226
												}
											}
										}
									}
								}
								JOINT RightHandPinky1
								{
									OFFSET -20.037003 -1.530334 -10.950259
									CHANNELS 3 Xrotation Yrotation Zrotation
									JOINT RightHandPinky2
									{
										OFFSET -5.254700 0.000000 0.000000
										CHANNELS 3 Xrotation Yrotation Zrotation
										JOINT RightHandPinky3
										{
											OFFSET -4.810204 0.000000 0.000000
											CHANNELS 3 Xrotation Yrotation Zrotation
											JOINT RightHandPinky4
											{
												OFFSET -3.647202 0.000000 0.000000
												CHANNELS 3 Xrotation Yrotation Zrotation
												End Site
												{
													OFFSET 0.000000 3.647186 0.011917
												}
											}
										}
									}
								}
							}
						}
					}
				}
			}
		}
	}
	JOINT LeftUpLeg
	{
		OFFSET 15.427100 -6.655098 0.678600
		CHANNELS 3 Xrotation Yrotation Zrotation
		JOINT LeftLeg
		{
			OFFSET 4.081073 -39.591068 13.024000
			CHANNELS 3 Xrotation Yrotation Zrotation
			JOINT LeftFoot
			{
				OFFSET -4.081074 -37.707932 -15.979700
				CHANNELS 3 Xrotation Yrotation Zrotation
				JOINT LeftToeBase
				{
					OFFSET 5.346399 -15.068900 20.645000
					CHANNELS 3 Xrotation Yrotation Zrotation
					JOINT LeftToe_End
					{
						OFFSET 2.754700 0.931300 11.300900
						CHANNELS 3 Xrotation Yrotation Zrotation
						End Site
						{
							OFFSET 0.000000 11.669021 0.000000
						}
					}
				}
			}
		}
	}
	JOINT RightUpLeg
	{
		OFFSET -15.569500 -6.655098 0.678600
		CHANNELS 3 Xrotation Yrotation Zrotation
		JOINT RightLeg
		{
			OFFSET -4.081825 -39.591045 13.023800
			CHANNELS 3 Xrotation Yrotation Zrotation
			JOINT RightFoot
			{
				OFFSET 4.081824 -37.707954 -15.979600
				CHANNELS 3 Xrotation Yrotation Zrotation
				JOINT RightToeBase
				{
					OFFSET -5.346400 -15.068900 20.645000
					CHANNELS 3 Xrotation Yrotation Zrotation
					JOINT RightToe_End
					{
						OFFSET -2.754700 0.931300 11.300900
						CHANNELS 3 Xrotation Yrotation Zrotation
						End Site
						{
							OFFSET 0.000000 11.669021 0.000000
						}
					}
				}
			}
		}
	}
}
MOTION
Frames: 6
Frame Time: 0.033333
-0.377886 77.177299 -3.280376 -1.390717 -0.461370 4.428944 2.602860 1.355090 -0.970838 5.423557 2.378016 -4.096687 5.378041 2.535122 -4.111531 8.524892 -1.132486 1.467648 22.746289 -12.727331 19.027129 -0.000001 0.000002 -0.000001 0.562295 -3.254762 5.297980 -68.674185 -53.619195 -80.194064 0.000170 -73.481081 0.000193 6.292932 -5.219418 2.988785 12.207365 2.040576 -18.888449 -4.526217 41.241341 17.435405 10.622612 57.868600 5.895971 0.000000 0.000003 0.000000 5.690599 6.777913 -80.012989 8.242284 6.745875 -101.434941 5.424618 6.725994 -77.750973 -0.000002 -0.000001 -0.000004 5.049766 6.634152 -74.529385 7.596595 6.844082 -95.981800 4.791935 6.557816 -72.285019 -0.000000 0.000001 0.000000 5.210021 6.676145 -75.912136 7.757424 6.825448 -97.333119 4.948520 6.605455 -73.651166 0.000001 0.000000 -0.000001 9.535561 7.546689 -78.634055 8.075976 2.690451 -100.002992 5.264951 6.689581 -76.384123 -0.000003 -0.000000 -0.000001 -1.565746 17.542468 -4.641644 -16.205507 37.166905 15.557825 -0.000019 119.862020 0.000020 5.985918 0.128606 -12.494977 19.362278 8.185412 5.946371 12.293020 -37.397601 -3.358316 57.661707 -51.062197 35.696580 0.000000 -0.000001 -0.000004 6.711826 -6.944227 88.045462 6.965642 -6.948212 90.144092 4.867505 -6.630837 72.534478 0.000000 -0.000000 -0.000000 6.711825 -6.944226 88.045462 6.827946 -6.947202 89.005500 4.736627 -6.588500 71.397470 -0.000000 -0.000000 0.000000 7.221352 -6.942882 92.258316 7.337363 -6.937393 93.218347 5.224877 -6.732128 75.605352 0.000001 -0.000000 0.000001 7.262635 -6.941150 92.599880 7.378625 -6.934968 93.559931 5.264900 -6.742191 75.946642 -0.000001 -0.000000 -0.000002 -47.387217 -5.932815 -3.811183 43.458755 -7.983917 -1.656127 0.567072 -29.494796 -6.566953 -0.687345 0.000026 0.000003 -0.000000 -0.000002 0.000000 -9.366311 3.846861 -12.637301 67.169351 8.963276 0.399101 -6.432832 29.360275 -26.176005 -58.128079 1.296134 -8.345864 0.000000 0.000001 0.000001 
0.454517 77.849533 -2.956973 -1.119186 -5.523764 3.883936 2.725975 1.144181 -0.593010 5.439055 2.370830 -3.612799 5.382254 2.577869 -3.626561 8.119843 -0.955826 1.140720 21.749090 -11.488558 16.809553 0.000001 -0.000000 -0.000001 0.503798 -2.802735 5.126985 -66.124694 -52.494409 -77.479576 0.000071 -74.196365 0.000087 6.520980 -5.088210 3.344728 12.207369 2.040573 -18.888448 -4.526216 41.241331 17.435403 10.622611 57.868607 5.895972 -0.000001 0.000000 0.000000 5.690602 6.777910 -80.012996 8.242285 6.745874 -101.434928 5.424617 6.725993 -77.750973 0.000001 0.000000 -0.000001 5.049769 6.634148 -74.529385 7.596594 6.844082 -95.981814 4.791933 6.557814 -72.285019 0.000000 -0.000001 -0.000002 5.210025 6.676139 -75.912136 7.757420 6.825449 -97.333112 4.948519 6.605458 -73.651166 0.000002 0.000001 0.000000 9.535566 7.546685 -78.634055 8.075976 2.690452 -100.002999 5.264954 6.689580 -76.384130 -0.000002 -0.000001 -0.000002 -0.946451 18.901237 -5.176474 -14.019174 35.433007 15.588204 0.000010 120.724891 -0.000015 8.917940 1.893945 -15.926049 19.362277 8.185412 5.946371 12.293025 -37.397605 -3.358314 57.661714 -51.062194 35.696580 -0.000002 0.000000 0.000001 6.711826 -6.944227 88.045462 6.965641 -6.948212 90.144092 4.867507 -6.630839 72.534478 0.000001 0.000001 -0.000004 6.711826 -6.944226 88.045455 6.827947 -6.947205 89.005500 4.736629 -6.588499 71.397470 -0.000000 -0.000000 -0.000003 7.221350 -6.942882 92.258316 7.337362 -6.937393 93.218347 5.224875 -6.732127 75.605352 0.000001 -0.000000 -0.000001 7.262635 -6.941151 92.599880 7.378623 -6.934967 93.559931 5.264899 -6.742189 75.946642 -0.000000 0.000001 -0.000001 -45.859287 -5.468625 -1.708423 43.370147 -8.214862 -1.482934 -1.153899 -29.226226 -6.826031 -1.704598 -0.000007 -0.000000 0.000000 -0.000001 -0.000000 -12.607663 5.261007 -14.729918 66.826960 9.090901 0.653185 -2.177454 29.330294 -24.744640 -60.708381 1.313670 -7.027465 -0.000001 0.000001 0.000000 
1.196259 78.532951 -2.598939 -0.913366 -11.104475 3.328057 2.964506 0.934100 -0.343677 5.530575 2.412955 -3.106938 5.460523 2.672239 -3.116746 7.722366 -0.729882 0.935065 20.624501 -9.790841 14.080462 -0.000002 0.000001 0.000000 0.465851 -2.481973 4.690829 -62.898912 -50.892750 -73.854494 -0.000238 -75.149935 -0.000232 7.181226 -4.582541 4.150891 12.207367 2.040574 -18.888448 -4.526215 41.241338 17.435403 10.622610 57.868600 5.895973 -0.000000 -0.000004 -0.000001 5.690603 6.777913 -80.012989 8.242278 6.745878 -101.434941 5.424619 6.725991 -77.750973 0.000002 -0.000001 -0.000005 5.049768 6.634148 -74.529392 7.596594 6.844081 -95.981807 4.791936 6.557814 -72.285019 -0.000002 -0.000000 -0.000004 5.210025 6.676141 -75.912143 7.757426 6.825448 -97.333112 4.948520 6.605457 -73.651166 0.000001 0.000001 0.000002 9.535563 7.546687 -78.634055 8.075978 2.690452 -100.002992 5.264951 6.689580 -76.384123 -0.000003 -0.000001 -0.000004 -0.313722 21.036134 -5.775062 -11.989369 33.016680 15.889361 -0.000014 120.576171 0.000018 12.254012 3.235899 -20.641274 19.362277 8.185411 5.946371 12.293024 -37.397605 -3.358315 57.661714 -51.062197 35.696580 0.000001 -0.000001 -0.000006 6.711825 -6.944226 88.045462 6.965642 -6.948212 90.144092 4.867504 -6.630840 72.534485 0.000000 0.000002 -0.000002 6.711825 -6.944226 88.045462 6.827948 -6.947204 89.005500 4.736629 -6.588500 71.397477 -0.000001 0.000000 0.000000 7.221349 -6.942881 92.258316 7.337363 -6.937393 93.218347 5.224875 -6.732127 75.605345 -0.000000 -0.000000 -0.000001 7.262633 -6.941149 92.599880 7.378624 -6.934969 93.559931 5.264898 -6.742189 75.946649 0.000000 0.000001 -0.000003 -43.988355 -4.528952 0.599794 43.822186 -8.324673 -1.344269 -2.873730 -26.675205 -6.397798 -2.240107 -0.000007 0.000001 0.000000 0.000003 0.000000 -16.563238 6.787845 -16.979787 66.287689 9.149353 0.817212 2.639941 28.279498 -20.826111 -63.395862 1.282040 -5.705649 -0.000000 -0.000002 -0.000001 
1.824455 79.254395 -2.249997 -0.738607 -16.921841 2.634029 3.271723 0.738700 -0.143909 5.631727 2.457025 -2.534176 5.546113 2.762101 -2.536663 7.430723 -0.412519 0.804706 19.203714 -7.565821 11.009015 0.000001 0.000001 0.000000 0.437894 -2.218100 4.205001 -59.224208 -48.906282 -69.644721 -0.000034 -76.256767 -0.000030 7.444349 -4.356102 5.205746 12.207367 2.040577 -18.888449 -4.526216 41.241338 17.435405 10.622618 57.868600 5.895974 -0.000000 0.000005 0.000001 5.690601 6.777916 -80.012996 8.242280 6.745876 -101.434934 5.424617 6.725992 -77.750973 -0.000001 0.000001 0.000000 5.049768 6.634150 -74.529385 7.596592 6.844081 -95.981814 4.791936 6.557810 -72.285019 -0.000000 0.000000 0.000000 5.210024 6.676144 -75.912143 7.757427 6.825448 -97.333112 4.948518 6.605456 -73.651166 0.000001 0.000000 0.000001 9.535564 7.546691 -78.634055 8.075970 2.690451 -100.002999 5.264953 6.689580 -76.384123 -0.000003 -0.000002 -0.000002 0.114533 22.863693 -6.306919 -10.081883 30.419897 16.328057 -0.000019 119.845190 0.000021 14.831068 4.283505 -24.441834 19.362277 8.185411 5.946370 12.293029 -37.397605 -3.358316 57.661707 -51.062194 35.696577 -0.000002 -0.000001 -0.000004 6.711825 -6.944226 88.045455 6.965642 -6.948211 90.144092 4.867506 -6.630839 72.534478 -0.000000 -0.000000 -0.000003 6.711826 -6.944227 88.045462 6.827945 -6.947204 89.005500 4.736627 -6.588500 71.397477 -0.000000 0.000000 0.000001 7.221351 -6.942883 92.258316 7.337364 -6.937392 93.218347 5.224876 -6.732126 75.605345 -0.000000 -0.000001 0.000001 7.262635 -6.941151 92.599880 7.378625 -6.934969 93.559931 5.264900 -6.742189 75.946649 -0.000000 -0.000000 0.000001 -42.016940 -3.380469 3.205348 44.274369 -8.659996 -1.315194 -4.568921 -23.317518 -6.173819 -2.630481 -0.000003 0.000001 -0.000000 -0.000001 0.000000 -20.270268 7.993045 -19.224539 64.735379 9.213432 0.780036 6.835428 26.611083 -14.505792 -64.975733 1.204080 -4.459625 -0.000001 -0.000000 0.000000 
2.451075 79.892754 -1.906023 -0.498863 -22.777696 1.732268 3.602063 0.603621 0.121222 5.683538 2.533067 -1.893908 5.578002 2.870996 -1.885481 7.260267 -0.047226 0.792480 17.527860 -4.966904 7.700141 -0.000000 0.000001 -0.000000 0.432267 -2.151926 3.994142 -55.336017 -46.614296 -65.125157 -0.000143 -77.415475 -0.000145 7.014632 -4.338137 6.057404 12.207364 2.040576 -18.888449 -4.526217 41.241341 17.435407 10.622608 57.868600 5.895972 -0.000000 0.000001 0.000000 5.690599 6.777913 -80.012989 8.242280 6.745877 -101.434934 5.424618 6.725992 -77.750973 0.000000 -0.000001 -0.000003 5.049770 6.634150 -74.529385 7.596599 6.844079 -95.981814 4.791934 6.557814 -72.285012 -0.000002 0.000001 -0.000000 5.210025 6.676140 -75.912143 7.757420 6.825448 -97.333112 4.948518 6.605456 -73.651166 -0.000001 -0.000002 -0.000001 9.535561 7.546685 -78.634055 8.075975 2.690451 -100.002999 5.264952 6.689579 -76.384130 -0.000002 -0.000001 0.000002 0.123115 23.288346 -6.592216 -8.454622 28.323948 16.958530 0.000005 119.307354 -0.000009 17.017729 5.275778 -27.201201 19.362275 8.185411 5.946371 12.293020 -37.397605 -3.358311 57.661727 -51.062197 35.696584 -0.000001 0.000004 0.000002 6.711826 -6.944228 88.045462 6.965641 -6.948212 90.144092 4.867505 -6.630836 72.534478 0.000001 -0.000001 -0.000003 6.711826 -6.944227 88.045462 6.827945 -6.947201 89.005493 4.736629 -6.588501 71.397470 0.000000 -0.000000 0.000004 7.221352 -6.942883 92.258316 7.337361 -6.937395 93.218347 5.224876 -6.732129 75.605352 -0.000001 0.000000 -0.000000 7.262633 -6.941149 92.599880 7.378625 -6.934969 93.559931 5.264899 -6.742191 75.946642 0.000000 0.000001 0.000001 -40.198580 -2.185982 5.972345 44.761266 -8.911708 -1.246637 -6.467405 -20.145061 -6.102814 -3.070705 -0.000053 -0.000001 -0.000000 -0.000001 -0.000000 -24.343657 8.921564 -20.913858 63.286730 8.337466 0.336668 10.685367 23.160731 -6.825415 -65.371119 0.488842 -1.472191 -0.000001 0.000000 0.000000 
3.086961 80.676704 -1.622337 -0.138322 -28.394828 0.684386 3.916386 0.565516 0.527382 5.649610 2.645501 -1.270212 5.521453 2.998877 -1.246482 7.162001 0.305856 0.890167 15.970847 -2.350384 4.456401 -0.000002 0.000000 0.000000 0.468968 -2.466210 4.107887 -51.741698 -43.553162 -61.059268 -0.000230 -78.551472 -0.000216 6.179960 -4.452576 6.526865 12.207369 2.040573 -18.888451 -4.526217 41.241338 17.435403 10.622613 57.868593 5.895976 0.000001 0.000001 -0.000000 5.690602 6.777913 -80.012996 8.242282 6.745876 -101.434934 5.424618 6.725992 -77.750967 0.000000 0.000001 0.000001 5.049768 6.634150 -74.529392 7.596596 6.844083 -95.981814 4.791935 6.557811 -72.285012 -0.000002 0.000002 0.000002 5.210024 6.676141 -75.912136 7.757427 6.825449 -97.333112 4.948519 6.605455 -73.651166 -0.000000 0.000001 0.000001 9.535563 7.546688 -78.634049 8.075973 2.690454 -100.002999 5.264954 6.689578 -76.384137 -0.000001 -0.000002 -0.000002 -0.262063 22.186891 -6.275287 -7.191492 27.338981 17.495415 0.000009 118.743645 -0.000000 19.730388 6.477023 -29.133291 19.362277 8.185411 5.946370 12.293020 -37.397598 -3.358318 57.661727 -51.062197 35.696573 -0.000000 0.000000 -0.000001 6.711823 -6.944225 88.045462 6.965642 -6.948212 90.144092 4.867504 -6.630837 72.534485 -0.000002 0.000001 -0.000002 6.711823 -6.944224 88.045462 6.827948 -6.947205 89.005493 4.736627 -6.588500 71.397470 -0.000001 0.000003 -0.000001 7.221347 -6.942880 92.258316 7.337362 -6.937396 93.218347 5.224876 -6.732129 75.605345 0.000001 -0.000001 0.000001 7.262633 -6.941152 92.599880 7.378625 -6.934967 93.559931 5.264898 -6.742191 75.946642 -0.000000 0.000001 0.000001 -38.524046 -1.022610 8.761832 44.841701 -9.098890 -1.196717 -8.034918 -17.239819 -6.066435 -3.443420 0.000017 -0.000004 -0.000000 -0.000002 -0.000000 -26.459149 8.784411 -22.338972 61.261565 7.265701 -0.307084 9.563738 16.072736 2.270224 -62.289447 -1.532683 4.021206 0.000000 0.000001 -0.000000 
